<svg width="17" height="13" viewBox="0 0 17 13" fill="none" xmlns="http://www.w3.org/2000/svg">
<path fill-rule="evenodd" clip-rule="evenodd" d="M9.36833 0.201062C9.49724 0.0723153 9.67198 0 9.85417 0C10.0364 0 10.2111 0.0723153 10.34 0.201062L15.84 5.70106C15.9687 5.82997 16.0411 6.00471 16.0411 6.1869C16.0411 6.36908 15.9687 6.54382 15.84 6.67273L10.34 12.1727C10.2771 12.2403 10.2012 12.2945 10.1168 12.332C10.0325 12.3696 9.94146 12.3898 9.84914 12.3914C9.75683 12.3931 9.66514 12.3761 9.57953 12.3415C9.49393 12.3069 9.41617 12.2555 9.35088 12.1902C9.2856 12.1249 9.23413 12.0471 9.19955 11.9615C9.16498 11.8759 9.14799 11.7842 9.14962 11.6919C9.15125 11.5996 9.17146 11.5086 9.20903 11.4242C9.24661 11.3399 9.30079 11.264 9.36833 11.2011L13.695 6.8744H0.6875C0.505164 6.8744 0.330295 6.80196 0.201364 6.67303C0.0724327 6.5441 0 6.36923 0 6.1869C0 6.00456 0.0724327 5.82969 0.201364 5.70076C0.330295 5.57183 0.505164 5.4994 0.6875 5.4994H13.695L9.36833 1.17273C9.23959 1.04382 9.16727 0.869083 9.16727 0.686895C9.16727 0.504707 9.23959 0.329968 9.36833 0.201062Z" fill="white"/>
</svg>
